<?xml version="1.0" encoding="UTF-8" standalone="no"?>
<!DOCTYPE svg PUBLIC "-//W3C//DTD SVG 1.1//EN"
 "http://www.w3.org/Graphics/SVG/1.1/DTD/svg11.dtd">
<!-- Generated by graphviz version 2.43.0 (0)
 -->
<!-- Title: %3 Pages: 1 -->
<svg width="2463pt" height="260pt"
 viewBox="0.00 0.00 2463.15 260.00" xmlns="http://www.w3.org/2000/svg" xmlns:xlink="http://www.w3.org/1999/xlink">
<g id="graph0" class="graph" transform="scale(1 1) rotate(0) translate(4 256)">
<title>%3</title>
<polygon fill="white" stroke="transparent" points="-4,4 -4,-256 2459.15,-256 2459.15,4 -4,4"/>
<!-- AA_0 -->
<g id="node1" class="node">
<title>AA_0</title>
<ellipse fill="none" stroke="black" cx="1884.35" cy="-234" rx="33.6" ry="18"/>
<text text-anchor="middle" x="1884.35" y="-230.3" font-family="Times,serif" font-size="14.00">AA_0</text>
</g>
<!-- VP_0 -->
<g id="node2" class="node">
<title>VP_0</title>
<ellipse fill="none" stroke="black" cx="1798.35" cy="-162" rx="33.6" ry="18"/>
<text text-anchor="middle" x="1798.35" y="-158.3" font-family="Times,serif" font-size="14.00">VP_0</text>
</g>
<!-- AA_0&#45;&#45;VP_0 -->
<g id="edge1" class="edge">
<title>AA_0&#45;&#45;VP_0</title>
<path fill="none" stroke="black" d="M1866.53,-218.5C1851.77,-206.48 1830.9,-189.49 1816.14,-177.49"/>
</g>
<!-- ON_0 -->
<g id="node3" class="node">
<title>ON_0</title>
<ellipse fill="none" stroke="black" cx="1586.35" cy="-162" rx="36.29" ry="18"/>
<text text-anchor="middle" x="1586.35" y="-158.3" font-family="Times,serif" font-size="14.00">ON_0</text>
</g>
<!-- AA_0&#45;&#45;ON_0 -->
<g id="edge2" class="edge">
<title>AA_0&#45;&#45;ON_0</title>
<path fill="none" stroke="black" d="M1854.13,-225.9C1797.61,-212.63 1676.36,-184.15 1618.44,-170.54"/>
</g>
<!-- PC_0 -->
<g id="node4" class="node">
<title>PC_0</title>
<ellipse fill="none" stroke="black" cx="2008.35" cy="-162" rx="34.39" ry="18"/>
<text text-anchor="middle" x="2008.35" y="-158.3" font-family="Times,serif" font-size="14.00">PC_0</text>
</g>
<!-- AA_0&#45;&#45;PC_0 -->
<g id="edge3" class="edge">
<title>AA_0&#45;&#45;PC_0</title>
<path fill="none" stroke="black" d="M1906.8,-220.32C1929.14,-207.72 1963.22,-188.48 1985.64,-175.82"/>
</g>
<!-- GE_0 -->
<g id="node5" class="node">
<title>GE_0</title>
<ellipse fill="none" stroke="black" cx="2313.35" cy="-90" rx="35.19" ry="18"/>
<text text-anchor="middle" x="2313.35" y="-86.3" font-family="Times,serif" font-size="14.00">GE_0</text>
</g>
<!-- AA_0&#45;&#45;GE_0 -->
<g id="edge4" class="edge">
<title>AA_0&#45;&#45;GE_0</title>
<path fill="none" stroke="black" d="M1896.84,-216.86C1915.09,-193.72 1948.68,-152.93 1965.35,-144 2019.28,-115.11 2201.77,-98.99 2278.7,-93.34"/>
</g>
<!-- YO_0 -->
<g id="node6" class="node">
<title>YO_0</title>
<ellipse fill="none" stroke="black" cx="1884.35" cy="-162" rx="34.39" ry="18"/>
<text text-anchor="middle" x="1884.35" y="-158.3" font-family="Times,serif" font-size="14.00">YO_0</text>
</g>
<!-- AA_0&#45;&#45;YO_0 -->
<g id="edge5" class="edge">
<title>AA_0&#45;&#45;YO_0</title>
<path fill="none" stroke="black" d="M1884.35,-215.7C1884.35,-204.85 1884.35,-190.92 1884.35,-180.1"/>
</g>
<!-- JW_0 -->
<g id="node19" class="node">
<title>JW_0</title>
<ellipse fill="none" stroke="black" cx="1437.35" cy="-90" rx="33.6" ry="18"/>
<text text-anchor="middle" x="1437.35" y="-86.3" font-family="Times,serif" font-size="14.00">JW_0</text>
</g>
<!-- VP_0&#45;&#45;JW_0 -->
<g id="edge50" class="edge">
<title>VP_0&#45;&#45;JW_0</title>
<path fill="none" stroke="black" d="M1772.73,-149.85C1767.08,-147.68 1761.07,-145.59 1755.35,-144 1653.42,-115.7 1528.67,-100.3 1470.35,-94.18"/>
</g>
<!-- AY_19 -->
<g id="node7" class="node">
<title>AY_19</title>
<ellipse fill="none" stroke="black" cx="1884.35" cy="-90" rx="38.99" ry="18"/>
<text text-anchor="middle" x="1884.35" y="-86.3" font-family="Times,serif" font-size="14.00">AY_19</text>
</g>
<!-- YO_0&#45;&#45;AY_19 -->
<g id="edge67" class="edge">
<title>YO_0&#45;&#45;AY_19</title>
<path fill="none" stroke="black" d="M1884.35,-143.7C1884.35,-132.85 1884.35,-118.92 1884.35,-108.1"/>
</g>
<!-- CY_0 -->
<g id="node8" class="node">
<title>CY_0</title>
<ellipse fill="none" stroke="black" cx="2007.35" cy="-18" rx="33.6" ry="18"/>
<text text-anchor="middle" x="2007.35" y="-14.3" font-family="Times,serif" font-size="14.00">CY_0</text>
</g>
<!-- AY_19&#45;&#45;CY_0 -->
<g id="edge6" class="edge">
<title>AY_19&#45;&#45;CY_0</title>
<path fill="none" stroke="black" d="M1908.06,-75.5C1930.26,-62.87 1963.18,-44.13 1984.95,-31.75"/>
</g>
<!-- FG_0 -->
<g id="node9" class="node">
<title>FG_0</title>
<ellipse fill="none" stroke="black" cx="2340.35" cy="-18" rx="34.39" ry="18"/>
<text text-anchor="middle" x="2340.35" y="-14.3" font-family="Times,serif" font-size="14.00">FG_0</text>
</g>
<!-- AY_19&#45;&#45;FG_0 -->
<g id="edge7" class="edge">
<title>AY_19&#45;&#45;FG_0</title>
<path fill="none" stroke="black" d="M1920.89,-83.39C2007.65,-70.07 2224.92,-36.72 2307.66,-24.02"/>
</g>
<!-- DO_0 -->
<g id="node10" class="node">
<title>DO_0</title>
<ellipse fill="none" stroke="black" cx="1591.35" cy="-18" rx="36" ry="18"/>
<text text-anchor="middle" x="1591.35" y="-14.3" font-family="Times,serif" font-size="14.00">DO_0</text>
</g>
<!-- AY_19&#45;&#45;DO_0 -->
<g id="edge8" class="edge">
<title>AY_19&#45;&#45;DO_0</title>
<path fill="none" stroke="black" d="M1850.45,-80.9C1793.36,-67.26 1678.81,-39.9 1623.16,-26.6"/>
</g>
<!-- BO_0 -->
<g id="node11" class="node">
<title>BO_0</title>
<ellipse fill="none" stroke="black" cx="335.35" cy="-90" rx="35.19" ry="18"/>
<text text-anchor="middle" x="335.35" y="-86.3" font-family="Times,serif" font-size="14.00">BO_0</text>
</g>
<!-- RT_21 -->
<g id="node12" class="node">
<title>RT_21</title>
<ellipse fill="none" stroke="black" cx="416.35" cy="-18" rx="39.79" ry="18"/>
<text text-anchor="middle" x="416.35" y="-14.3" font-family="Times,serif" font-size="14.00">RT_21</text>
</g>
<!-- BO_0&#45;&#45;RT_21 -->
<g id="edge9" class="edge">
<title>BO_0&#45;&#45;RT_21</title>
<path fill="none" stroke="black" d="M352.52,-74.15C366.08,-62.44 384.94,-46.14 398.63,-34.31"/>
</g>
<!-- BV_0 -->
<g id="node13" class="node">
<title>BV_0</title>
<ellipse fill="none" stroke="black" cx="1024.35" cy="-90" rx="34.39" ry="18"/>
<text text-anchor="middle" x="1024.35" y="-86.3" font-family="Times,serif" font-size="14.00">BV_0</text>
</g>
<!-- QO_12 -->
<g id="node14" class="node">
<title>QO_12</title>
<ellipse fill="none" stroke="black" cx="597.35" cy="-18" rx="41.69" ry="18"/>
<text text-anchor="middle" x="597.35" y="-14.3" font-family="Times,serif" font-size="14.00">QO_12</text>
</g>
<!-- BV_0&#45;&#45;QO_12 -->
<g id="edge10" class="edge">
<title>BV_0&#45;&#45;QO_12</title>
<path fill="none" stroke="black" d="M997.8,-78.31C991.2,-75.96 984.08,-73.67 977.35,-72 855.95,-41.93 708.23,-27.46 638.09,-21.88"/>
</g>
<!-- CB_9 -->
<g id="node15" class="node">
<title>CB_9</title>
<ellipse fill="none" stroke="black" cx="1306.35" cy="-234" rx="34.39" ry="18"/>
<text text-anchor="middle" x="1306.35" y="-230.3" font-family="Times,serif" font-size="14.00">CB_9</text>
</g>
<!-- QZ_0 -->
<g id="node16" class="node">
<title>QZ_0</title>
<ellipse fill="none" stroke="black" cx="441.35" cy="-162" rx="34.39" ry="18"/>
<text text-anchor="middle" x="441.35" y="-158.3" font-family="Times,serif" font-size="14.00">QZ_0</text>
</g>
<!-- CB_9&#45;&#45;QZ_0 -->
<g id="edge11" class="edge">
<title>CB_9&#45;&#45;QZ_0</title>
<path fill="none" stroke="black" d="M1273,-229.15C1239.51,-225.39 1186.41,-219.7 1140.35,-216 866.1,-193.98 795.07,-216.36 522.35,-180 505.54,-177.76 487.02,-173.97 471.93,-170.54"/>
</g>
<!-- BP_0 -->
<g id="node17" class="node">
<title>BP_0</title>
<ellipse fill="none" stroke="black" cx="1497.35" cy="-162" rx="34.39" ry="18"/>
<text text-anchor="middle" x="1497.35" y="-158.3" font-family="Times,serif" font-size="14.00">BP_0</text>
</g>
<!-- CB_9&#45;&#45;BP_0 -->
<g id="edge12" class="edge">
<title>CB_9&#45;&#45;BP_0</title>
<path fill="none" stroke="black" d="M1334.05,-223.22C1363.65,-212.73 1411.92,-195.47 1453.35,-180 1458.87,-177.94 1464.77,-175.69 1470.39,-173.53"/>
</g>
<!-- UU_0 -->
<g id="node18" class="node">
<title>UU_0</title>
<ellipse fill="none" stroke="black" cx="1408.35" cy="-162" rx="36.29" ry="18"/>
<text text-anchor="middle" x="1408.35" y="-158.3" font-family="Times,serif" font-size="14.00">UU_0</text>
</g>
<!-- CB_9&#45;&#45;UU_0 -->
<g id="edge13" class="edge">
<title>CB_9&#45;&#45;UU_0</title>
<path fill="none" stroke="black" d="M1326.5,-219.17C1344.26,-206.98 1370.03,-189.3 1387.89,-177.04"/>
</g>
<!-- CB_9&#45;&#45;JW_0 -->
<g id="edge14" class="edge">
<title>CB_9&#45;&#45;JW_0</title>
<path fill="none" stroke="black" d="M1306.88,-215.7C1308.35,-196.24 1313.39,-164.66 1330.35,-144 1349.94,-120.12 1382.97,-106.08 1407.16,-98.52"/>
</g>
<!-- EX_0 -->
<g id="node20" class="node">
<title>EX_0</title>
<ellipse fill="none" stroke="black" cx="1244.35" cy="-162" rx="34.39" ry="18"/>
<text text-anchor="middle" x="1244.35" y="-158.3" font-family="Times,serif" font-size="14.00">EX_0</text>
</g>
<!-- CB_9&#45;&#45;EX_0 -->
<g id="edge15" class="edge">
<title>CB_9&#45;&#45;EX_0</title>
<path fill="none" stroke="black" d="M1292.59,-217.46C1282.46,-206.03 1268.72,-190.52 1258.5,-178.98"/>
</g>
<!-- CH_0 -->
<g id="node21" class="node">
<title>CH_0</title>
<ellipse fill="none" stroke="black" cx="89.35" cy="-234" rx="36" ry="18"/>
<text text-anchor="middle" x="89.35" y="-230.3" font-family="Times,serif" font-size="14.00">CH_0</text>
</g>
<!-- VR_24 -->
<g id="node22" class="node">
<title>VR_24</title>
<ellipse fill="none" stroke="black" cx="135.35" cy="-162" rx="40.09" ry="18"/>
<text text-anchor="middle" x="135.35" y="-158.3" font-family="Times,serif" font-size="14.00">VR_24</text>
</g>
<!-- CH_0&#45;&#45;VR_24 -->
<g id="edge16" class="edge">
<title>CH_0&#45;&#45;VR_24</title>
<path fill="none" stroke="black" d="M100.02,-216.76C107.34,-205.62 117.04,-190.87 124.42,-179.63"/>
</g>
<!-- NW_0 -->
<g id="node23" class="node">
<title>NW_0</title>
<ellipse fill="none" stroke="black" cx="38.35" cy="-162" rx="38.19" ry="18"/>
<text text-anchor="middle" x="38.35" y="-158.3" font-family="Times,serif" font-size="14.00">NW_0</text>
</g>
<!-- CH_0&#45;&#45;NW_0 -->
<g id="edge17" class="edge">
<title>CH_0&#45;&#45;NW_0</title>
<path fill="none" stroke="black" d="M77.52,-216.76C69.28,-205.46 58.34,-190.44 50.11,-179.15"/>
</g>
<!-- WT_25 -->
<g id="node28" class="node">
<title>WT_25</title>
<ellipse fill="none" stroke="black" cx="134.35" cy="-90" rx="42.49" ry="18"/>
<text text-anchor="middle" x="134.35" y="-86.3" font-family="Times,serif" font-size="14.00">WT_25</text>
</g>
<!-- NW_0&#45;&#45;WT_25 -->
<g id="edge38" class="edge">
<title>NW_0&#45;&#45;WT_25</title>
<path fill="none" stroke="black" d="M58.24,-146.5C74.49,-134.64 97.39,-117.95 113.82,-105.97"/>
</g>
<!-- CS_0 -->
<g id="node24" class="node">
<title>CS_0</title>
<ellipse fill="none" stroke="black" cx="39.35" cy="-90" rx="34.39" ry="18"/>
<text text-anchor="middle" x="39.35" y="-86.3" font-family="Times,serif" font-size="14.00">CS_0</text>
</g>
<!-- HS_0 -->
<g id="node25" class="node">
<title>HS_0</title>
<ellipse fill="none" stroke="black" cx="133.35" cy="-18" rx="35.19" ry="18"/>
<text text-anchor="middle" x="133.35" y="-14.3" font-family="Times,serif" font-size="14.00">HS_0</text>
</g>
<!-- CS_0&#45;&#45;HS_0 -->
<g id="edge18" class="edge">
<title>CS_0&#45;&#45;HS_0</title>
<path fill="none" stroke="black" d="M58.37,-74.83C74.68,-62.69 98.05,-45.28 114.35,-33.14"/>
</g>
<!-- SY_23 -->
<g id="node26" class="node">
<title>SY_23</title>
<ellipse fill="none" stroke="black" cx="39.35" cy="-18" rx="38.99" ry="18"/>
<text text-anchor="middle" x="39.35" y="-14.3" font-family="Times,serif" font-size="14.00">SY_23</text>
</g>
<!-- CS_0&#45;&#45;SY_23 -->
<g id="edge19" class="edge">
<title>CS_0&#45;&#45;SY_23</title>
<path fill="none" stroke="black" d="M39.35,-71.7C39.35,-60.85 39.35,-46.92 39.35,-36.1"/>
</g>
<!-- DG_0 -->
<g id="node27" class="node">
<title>DG_0</title>
<ellipse fill="none" stroke="black" cx="229.35" cy="-162" rx="36" ry="18"/>
<text text-anchor="middle" x="229.35" y="-158.3" font-family="Times,serif" font-size="14.00">DG_0</text>
</g>
<!-- DG_0&#45;&#45;WT_25 -->
<g id="edge20" class="edge">
<title>DG_0&#45;&#45;WT_25</title>
<path fill="none" stroke="black" d="M209.66,-146.5C193.58,-134.64 170.92,-117.95 154.66,-105.97"/>
</g>
<!-- WT_25&#45;&#45;HS_0 -->
<g id="edge53" class="edge">
<title>WT_25&#45;&#45;HS_0</title>
<path fill="none" stroke="black" d="M134.1,-71.7C133.94,-60.85 133.75,-46.92 133.59,-36.1"/>
</g>
<!-- FT_0 -->
<g id="node29" class="node">
<title>FT_0</title>
<ellipse fill="none" stroke="black" cx="750.35" cy="-234" rx="33.29" ry="18"/>
<text text-anchor="middle" x="750.35" y="-230.3" font-family="Times,serif" font-size="14.00">FT_0</text>
</g>
<!-- XI_10 -->
<g id="node30" class="node">
<title>XI_10</title>
<ellipse fill="none" stroke="black" cx="1026.35" cy="-162" rx="36.29" ry="18"/>
<text text-anchor="middle" x="1026.35" y="-158.3" font-family="Times,serif" font-size="14.00">XI_10</text>
</g>
<!-- FT_0&#45;&#45;XI_10 -->
<g id="edge21" class="edge">
<title>FT_0&#45;&#45;XI_10</title>
<path fill="none" stroke="black" d="M781.18,-227.2C825.62,-218.54 910.07,-200.99 980.35,-180 986.38,-178.2 992.77,-176.02 998.81,-173.83"/>
</g>
<!-- VG_15 -->
<g id="node31" class="node">
<title>VG_15</title>
<ellipse fill="none" stroke="black" cx="445.35" cy="-90" rx="40.09" ry="18"/>
<text text-anchor="middle" x="445.35" y="-86.3" font-family="Times,serif" font-size="14.00">VG_15</text>
</g>
<!-- FT_0&#45;&#45;VG_15 -->
<g id="edge22" class="edge">
<title>FT_0&#45;&#45;VG_15</title>
<path fill="none" stroke="black" d="M717.39,-231.67C670.8,-228.46 584.45,-217.48 522.35,-180 506.6,-170.5 474.93,-130.36 457.51,-107.36"/>
</g>
<!-- XI_10&#45;&#45;BV_0 -->
<g id="edge56" class="edge">
<title>XI_10&#45;&#45;BV_0</title>
<path fill="none" stroke="black" d="M1025.85,-143.7C1025.54,-132.85 1025.14,-118.92 1024.84,-108.1"/>
</g>
<!-- JV_0 -->
<g id="node50" class="node">
<title>JV_0</title>
<ellipse fill="none" stroke="black" cx="937.35" cy="-90" rx="30.59" ry="18"/>
<text text-anchor="middle" x="937.35" y="-86.3" font-family="Times,serif" font-size="14.00">JV_0</text>
</g>
<!-- XI_10&#45;&#45;JV_0 -->
<g id="edge54" class="edge">
<title>XI_10&#45;&#45;JV_0</title>
<path fill="none" stroke="black" d="M1007.47,-146.15C991.96,-133.95 970.15,-116.8 954.98,-104.87"/>
</g>
<!-- WO_0 -->
<g id="node53" class="node">
<title>WO_0</title>
<ellipse fill="none" stroke="black" cx="760.35" cy="-90" rx="37.89" ry="18"/>
<text text-anchor="middle" x="760.35" y="-86.3" font-family="Times,serif" font-size="14.00">WO_0</text>
</g>
<!-- XI_10&#45;&#45;WO_0 -->
<g id="edge55" class="edge">
<title>XI_10&#45;&#45;WO_0</title>
<path fill="none" stroke="black" d="M998.83,-150.09C992.8,-147.9 986.4,-145.75 980.35,-144 905.72,-122.48 884.18,-128.77 809.35,-108 802.75,-106.17 795.76,-103.93 789.17,-101.68"/>
</g>
<!-- GC_20 -->
<g id="node32" class="node">
<title>GC_20</title>
<ellipse fill="none" stroke="black" cx="1090.35" cy="-234" rx="40.89" ry="18"/>
<text text-anchor="middle" x="1090.35" y="-230.3" font-family="Times,serif" font-size="14.00">GC_20</text>
</g>
<!-- GC_20&#45;&#45;EX_0 -->
<g id="edge27" class="edge">
<title>GC_20&#45;&#45;EX_0</title>
<path fill="none" stroke="black" d="M1117.88,-220.49C1146.6,-207.43 1191.25,-187.13 1219.09,-174.48"/>
</g>
<!-- GC_20&#45;&#45;DG_0 -->
<g id="edge23" class="edge">
<title>GC_20&#45;&#45;DG_0</title>
<path fill="none" stroke="black" d="M1049.83,-230.7C890.33,-221.61 312.59,-188.27 274.35,-180 268.14,-178.66 261.66,-176.61 255.6,-174.4"/>
</g>
<!-- ZK_0 -->
<g id="node33" class="node">
<title>ZK_0</title>
<ellipse fill="none" stroke="black" cx="937.35" cy="-162" rx="34.39" ry="18"/>
<text text-anchor="middle" x="937.35" y="-158.3" font-family="Times,serif" font-size="14.00">ZK_0</text>
</g>
<!-- GC_20&#45;&#45;ZK_0 -->
<g id="edge24" class="edge">
<title>GC_20&#45;&#45;ZK_0</title>
<path fill="none" stroke="black" d="M1062.99,-220.49C1034.46,-207.43 990.1,-187.13 962.43,-174.48"/>
</g>
<!-- WC_0 -->
<g id="node34" class="node">
<title>WC_0</title>
<ellipse fill="none" stroke="black" cx="1155.35" cy="-162" rx="37.09" ry="18"/>
<text text-anchor="middle" x="1155.35" y="-158.3" font-family="Times,serif" font-size="14.00">WC_0</text>
</g>
<!-- GC_20&#45;&#45;WC_0 -->
<g id="edge25" class="edge">
<title>GC_20&#45;&#45;WC_0</title>
<path fill="none" stroke="black" d="M1105.1,-217.12C1115.73,-205.66 1130.03,-190.26 1140.66,-178.82"/>
</g>
<!-- KF_0 -->
<g id="node35" class="node">
<title>KF_0</title>
<ellipse fill="none" stroke="black" cx="1298.35" cy="-90" rx="34.39" ry="18"/>
<text text-anchor="middle" x="1298.35" y="-86.3" font-family="Times,serif" font-size="14.00">KF_0</text>
</g>
<!-- GC_20&#45;&#45;KF_0 -->
<g id="edge26" class="edge">
<title>GC_20&#45;&#45;KF_0</title>
<path fill="none" stroke="black" d="M1089.11,-215.89C1088.64,-196.02 1091.07,-163.47 1109.35,-144 1149.47,-101.27 1220.99,-92.03 1263.61,-90.57"/>
</g>
<!-- DP_0 -->
<g id="node49" class="node">
<title>DP_0</title>
<ellipse fill="none" stroke="black" cx="852.35" cy="-90" rx="34.39" ry="18"/>
<text text-anchor="middle" x="852.35" y="-86.3" font-family="Times,serif" font-size="14.00">DP_0</text>
</g>
<!-- ZK_0&#45;&#45;DP_0 -->
<g id="edge68" class="edge">
<title>ZK_0&#45;&#45;DP_0</title>
<path fill="none" stroke="black" d="M919.73,-146.5C905.15,-134.48 884.52,-117.49 869.94,-105.49"/>
</g>
<!-- JS_8 -->
<g id="node39" class="node">
<title>JS_8</title>
<ellipse fill="none" stroke="black" cx="1650.35" cy="-90" rx="30.59" ry="18"/>
<text text-anchor="middle" x="1650.35" y="-86.3" font-family="Times,serif" font-size="14.00">JS_8</text>
</g>
<!-- WC_0&#45;&#45;JS_8 -->
<g id="edge51" class="edge">
<title>WC_0&#45;&#45;JS_8</title>
<path fill="none" stroke="black" d="M1182.75,-149.67C1188.79,-147.51 1195.22,-145.47 1201.35,-144 1242.04,-134.23 1526.5,-103.96 1620.37,-94.12"/>
</g>
<!-- KF_0&#45;&#45;DO_0 -->
<g id="edge35" class="edge">
<title>KF_0&#45;&#45;DO_0</title>
<path fill="none" stroke="black" d="M1329.15,-81.64C1385.13,-68.27 1502.99,-40.11 1559.63,-26.58"/>
</g>
<!-- HU_0 -->
<g id="node36" class="node">
<title>HU_0</title>
<ellipse fill="none" stroke="black" cx="2400.35" cy="-162" rx="36.29" ry="18"/>
<text text-anchor="middle" x="2400.35" y="-158.3" font-family="Times,serif" font-size="14.00">HU_0</text>
</g>
<!-- HU_0&#45;&#45;GE_0 -->
<g id="edge28" class="edge">
<title>HU_0&#45;&#45;GE_0</title>
<path fill="none" stroke="black" d="M2381.9,-146.15C2367.03,-134.2 2346.25,-117.47 2331.47,-105.58"/>
</g>
<!-- IC_0 -->
<g id="node37" class="node">
<title>IC_0</title>
<ellipse fill="none" stroke="black" cx="180.35" cy="-234" rx="31.4" ry="18"/>
<text text-anchor="middle" x="180.35" y="-230.3" font-family="Times,serif" font-size="14.00">IC_0</text>
</g>
<!-- IC_0&#45;&#45;QZ_0 -->
<g id="edge29" class="edge">
<title>IC_0&#45;&#45;QZ_0</title>
<path fill="none" stroke="black" d="M208.28,-225.51C257.72,-212.25 360.24,-184.75 411.22,-171.08"/>
</g>
<!-- IC_0&#45;&#45;VR_24 -->
<g id="edge30" class="edge">
<title>IC_0&#45;&#45;VR_24</title>
<path fill="none" stroke="black" d="M169.91,-216.76C162.74,-205.62 153.26,-190.87 146.04,-179.63"/>
</g>
<!-- JN_0 -->
<g id="node38" class="node">
<title>JN_0</title>
<ellipse fill="none" stroke="black" cx="1681.35" cy="-234" rx="32.49" ry="18"/>
<text text-anchor="middle" x="1681.35" y="-230.3" font-family="Times,serif" font-size="14.00">JN_0</text>
</g>
<!-- JN_0&#45;&#45;JS_8 -->
<g id="edge31" class="edge">
<title>JN_0&#45;&#45;JS_8</title>
<path fill="none" stroke="black" d="M1677.4,-215.83C1675.03,-205.46 1671.98,-191.98 1669.35,-180 1663.85,-155 1657.7,-126 1653.93,-108.08"/>
</g>
<!-- ZX_0 -->
<g id="node40" class="node">
<title>ZX_0</title>
<ellipse fill="none" stroke="black" cx="1712.35" cy="-162" rx="33.6" ry="18"/>
<text text-anchor="middle" x="1712.35" y="-158.3" font-family="Times,serif" font-size="14.00">ZX_0</text>
</g>
<!-- JN_0&#45;&#45;ZX_0 -->
<g id="edge32" class="edge">
<title>JN_0&#45;&#45;ZX_0</title>
<path fill="none" stroke="black" d="M1688.69,-216.41C1693.56,-205.41 1699.93,-191.03 1704.84,-179.96"/>
</g>
<!-- ZX_0&#45;&#45;AY_19 -->
<g id="edge71" class="edge">
<title>ZX_0&#45;&#45;AY_19</title>
<path fill="none" stroke="black" d="M1738.47,-150.37C1770.14,-137.48 1823.32,-115.84 1855.97,-102.55"/>
</g>
<!-- KC_0 -->
<g id="node41" class="node">
<title>KC_0</title>
<ellipse fill="none" stroke="black" cx="1510.35" cy="-234" rx="34.39" ry="18"/>
<text text-anchor="middle" x="1510.35" y="-230.3" font-family="Times,serif" font-size="14.00">KC_0</text>
</g>
<!-- KC_0&#45;&#45;ON_0 -->
<g id="edge34" class="edge">
<title>KC_0&#45;&#45;ON_0</title>
<path fill="none" stroke="black" d="M1526.84,-217.81C1539.59,-206.07 1557.15,-189.89 1569.89,-178.16"/>
</g>
<!-- KC_0&#45;&#45;JS_8 -->
<g id="edge33" class="edge">
<title>KC_0&#45;&#45;JS_8</title>
<path fill="none" stroke="black" d="M1478.42,-226.9C1425.11,-215.34 1327.18,-187.45 1363.35,-144 1379.8,-124.23 1550.62,-102.49 1620.65,-94.33"/>
</g>
<!-- LG_0 -->
<g id="node42" class="node">
<title>LG_0</title>
<ellipse fill="none" stroke="black" cx="317.35" cy="-162" rx="34.39" ry="18"/>
<text text-anchor="middle" x="317.35" y="-158.3" font-family="Times,serif" font-size="14.00">LG_0</text>
</g>
<!-- LG_0&#45;&#45;BO_0 -->
<g id="edge36" class="edge">
<title>LG_0&#45;&#45;BO_0</title>
<path fill="none" stroke="black" d="M321.7,-144.05C324.49,-133.21 328.1,-119.18 330.9,-108.28"/>
</g>
<!-- LG_0&#45;&#45;VG_15 -->
<g id="edge37" class="edge">
<title>LG_0&#45;&#45;VG_15</title>
<path fill="none" stroke="black" d="M340.23,-148.49C362.95,-136.06 397.67,-117.07 420.92,-104.36"/>
</g>
<!-- PF_0 -->
<g id="node43" class="node">
<title>PF_0</title>
<ellipse fill="none" stroke="black" cx="649.35" cy="-162" rx="33.6" ry="18"/>
<text text-anchor="middle" x="649.35" y="-158.3" font-family="Times,serif" font-size="14.00">PF_0</text>
</g>
<!-- PF_0&#45;&#45;VG_15 -->
<g id="edge40" class="edge">
<title>PF_0&#45;&#45;VG_15</title>
<path fill="none" stroke="black" d="M623.07,-150.3C617.57,-148.14 611.79,-145.95 606.35,-144 557.12,-126.38 543.94,-124.57 494.35,-108 488.45,-106.03 482.18,-103.89 476.15,-101.81"/>
</g>
<!-- BY_0 -->
<g id="node44" class="node">
<title>BY_0</title>
<ellipse fill="none" stroke="black" cx="667.35" cy="-90" rx="33.6" ry="18"/>
<text text-anchor="middle" x="667.35" y="-86.3" font-family="Times,serif" font-size="14.00">BY_0</text>
</g>
<!-- PF_0&#45;&#45;BY_0 -->
<g id="edge39" class="edge">
<title>PF_0&#45;&#45;BY_0</title>
<path fill="none" stroke="black" d="M653.7,-144.05C656.49,-133.21 660.1,-119.18 662.9,-108.28"/>
</g>
<!-- PW_6 -->
<g id="node45" class="node">
<title>PW_6</title>
<ellipse fill="none" stroke="black" cx="2311.35" cy="-234" rx="36.29" ry="18"/>
<text text-anchor="middle" x="2311.35" y="-230.3" font-family="Times,serif" font-size="14.00">PW_6</text>
</g>
<!-- PW_6&#45;&#45;FG_0 -->
<g id="edge42" class="edge">
<title>PW_6&#45;&#45;FG_0</title>
<path fill="none" stroke="black" d="M2346.97,-229.78C2378.73,-224.81 2423.47,-212.17 2445.35,-180 2482.12,-125.91 2401.03,-60.27 2361.01,-32.47"/>
</g>
<!-- PW_6&#45;&#45;BP_0 -->
<g id="edge43" class="edge">
<title>PW_6&#45;&#45;BP_0</title>
<path fill="none" stroke="black" d="M2276.06,-229.17C2240.93,-225.44 2185.46,-219.8 2137.35,-216 1872.8,-195.09 1800.64,-236.49 1541.35,-180 1535.27,-178.68 1528.92,-176.64 1523,-174.43"/>
</g>
<!-- PW_6&#45;&#45;HU_0 -->
<g id="edge45" class="edge">
<title>PW_6&#45;&#45;HU_0</title>
<path fill="none" stroke="black" d="M2330.22,-218.15C2345.43,-206.2 2366.69,-189.47 2381.8,-177.58"/>
</g>
<!-- YN_0 -->
<g id="node46" class="node">
<title>YN_0</title>
<ellipse fill="none" stroke="black" cx="2311.35" cy="-162" rx="34.39" ry="18"/>
<text text-anchor="middle" x="2311.35" y="-158.3" font-family="Times,serif" font-size="14.00">YN_0</text>
</g>
<!-- PW_6&#45;&#45;YN_0 -->
<g id="edge41" class="edge">
<title>PW_6&#45;&#45;YN_0</title>
<path fill="none" stroke="black" d="M2311.35,-215.7C2311.35,-204.85 2311.35,-190.92 2311.35,-180.1"/>
</g>
<!-- LQ_0 -->
<g id="node47" class="node">
<title>LQ_0</title>
<ellipse fill="none" stroke="black" cx="2224.35" cy="-162" rx="34.39" ry="18"/>
<text text-anchor="middle" x="2224.35" y="-158.3" font-family="Times,serif" font-size="14.00">LQ_0</text>
</g>
<!-- PW_6&#45;&#45;LQ_0 -->
<g id="edge44" class="edge">
<title>PW_6&#45;&#45;LQ_0</title>
<path fill="none" stroke="black" d="M2292.9,-218.15C2278.03,-206.2 2257.25,-189.47 2242.47,-177.58"/>
</g>
<!-- YN_0&#45;&#45;JS_8 -->
<g id="edge66" class="edge">
<title>YN_0&#45;&#45;JS_8</title>
<path fill="none" stroke="black" d="M2285.67,-149.67C2279.75,-147.46 2273.41,-145.39 2267.35,-144 2080.01,-100.92 2027.84,-124.75 1836.35,-108 1781.27,-103.18 1717.05,-97.24 1680.3,-93.81"/>
</g>
<!-- QT_13 -->
<g id="node48" class="node">
<title>QT_13</title>
<ellipse fill="none" stroke="black" cx="844.35" cy="-162" rx="40.09" ry="18"/>
<text text-anchor="middle" x="844.35" y="-158.3" font-family="Times,serif" font-size="14.00">QT_13</text>
</g>
<!-- QT_13&#45;&#45;DP_0 -->
<g id="edge46" class="edge">
<title>QT_13&#45;&#45;DP_0</title>
<path fill="none" stroke="black" d="M846.32,-143.7C847.56,-132.85 849.16,-118.92 850.39,-108.1"/>
</g>
<!-- QT_13&#45;&#45;JV_0 -->
<g id="edge47" class="edge">
<title>QT_13&#45;&#45;JV_0</title>
<path fill="none" stroke="black" d="M864.07,-146.15C880.39,-133.87 903.37,-116.57 919.23,-104.64"/>
</g>
<!-- TF_0 -->
<g id="node51" class="node">
<title>TF_0</title>
<ellipse fill="none" stroke="black" cx="564.35" cy="-162" rx="33.29" ry="18"/>
<text text-anchor="middle" x="564.35" y="-158.3" font-family="Times,serif" font-size="14.00">TF_0</text>
</g>
<!-- TF_0&#45;&#45;QO_12 -->
<g id="edge49" class="edge">
<title>TF_0&#45;&#45;QO_12</title>
<path fill="none" stroke="black" d="M569.1,-143.87C571.91,-133.51 575.47,-120.03 578.35,-108 584.29,-83.1 590.32,-54.08 593.95,-36.12"/>
</g>
<!-- TF_0&#45;&#45;VG_15 -->
<g id="edge48" class="edge">
<title>TF_0&#45;&#45;VG_15</title>
<path fill="none" stroke="black" d="M542.52,-148.16C521.59,-135.85 490.08,-117.31 468.66,-104.71"/>
</g>
<!-- WE_0 -->
<g id="node52" class="node">
<title>WE_0</title>
<ellipse fill="none" stroke="black" cx="2097.35" cy="-162" rx="37.09" ry="18"/>
<text text-anchor="middle" x="2097.35" y="-158.3" font-family="Times,serif" font-size="14.00">WE_0</text>
</g>
<!-- WE_0&#45;&#45;JS_8 -->
<g id="edge52" class="edge">
<title>WE_0&#45;&#45;JS_8</title>
<path fill="none" stroke="black" d="M2069.93,-149.74C2063.89,-147.57 2057.46,-145.51 2051.35,-144 1980.54,-126.47 1760.57,-102.49 1680.17,-94.07"/>
</g>
<!-- XZ_0 -->
<g id="node54" class="node">
<title>XZ_0</title>
<ellipse fill="none" stroke="black" cx="522.35" cy="-234" rx="33.6" ry="18"/>
<text text-anchor="middle" x="522.35" y="-230.3" font-family="Times,serif" font-size="14.00">XZ_0</text>
</g>
<!-- XZ_0&#45;&#45;VG_15 -->
<g id="edge57" class="edge">
<title>XZ_0&#45;&#45;VG_15</title>
<path fill="none" stroke="black" d="M489.58,-229.01C460.11,-223.49 418.47,-210.48 398.35,-180 382.08,-155.35 407.77,-124.46 427.11,-106.31"/>
</g>
<!-- XZ_0&#45;&#45;QT_13 -->
<g id="edge58" class="edge">
<title>XZ_0&#45;&#45;QT_13</title>
<path fill="none" stroke="black" d="M554.49,-228.18C605.71,-220.19 708.8,-202.77 794.35,-180 800.81,-178.28 807.66,-176.16 814.14,-174"/>
</g>
<!-- YA_0 -->
<g id="node55" class="node">
<title>YA_0</title>
<ellipse fill="none" stroke="black" cx="536.35" cy="-90" rx="33.29" ry="18"/>
<text text-anchor="middle" x="536.35" y="-86.3" font-family="Times,serif" font-size="14.00">YA_0</text>
</g>
<!-- YA_0&#45;&#45;RT_21 -->
<g id="edge60" class="edge">
<title>YA_0&#45;&#45;RT_21</title>
<path fill="none" stroke="black" d="M514.62,-76.32C493.54,-64.03 461.66,-45.43 439.97,-32.78"/>
</g>
<!-- YA_0&#45;&#45;QO_12 -->
<g id="edge59" class="edge">
<title>YA_0&#45;&#45;QO_12</title>
<path fill="none" stroke="black" d="M549.88,-73.46C559.85,-62.03 573.37,-46.52 583.42,-34.98"/>
</g>
<!-- YI_3 -->
<g id="node56" class="node">
<title>YI_3</title>
<ellipse fill="none" stroke="black" cx="2097.35" cy="-234" rx="30.59" ry="18"/>
<text text-anchor="middle" x="2097.35" y="-230.3" font-family="Times,serif" font-size="14.00">YI_3</text>
</g>
<!-- YI_3&#45;&#45;PC_0 -->
<g id="edge61" class="edge">
<title>YI_3&#45;&#45;PC_0</title>
<path fill="none" stroke="black" d="M2079.76,-219.17C2064.46,-207.14 2042.37,-189.76 2026.81,-177.52"/>
</g>
<!-- YI_3&#45;&#45;CY_0 -->
<g id="edge62" class="edge">
<title>YI_3&#45;&#45;CY_0</title>
<path fill="none" stroke="black" d="M2114.84,-218.78C2125.3,-209.1 2137.63,-195.29 2143.35,-180 2148.94,-165.01 2149.78,-158.65 2143.35,-144 2120.14,-91.15 2062.33,-50.82 2030.05,-31.53"/>
</g>
<!-- YI_3&#45;&#45;UU_0 -->
<g id="edge65" class="edge">
<title>YI_3&#45;&#45;UU_0</title>
<path fill="none" stroke="black" d="M2067.58,-229.81C2033.66,-226.22 1976.54,-220.33 1927.35,-216 1717.33,-197.51 1660.32,-224.98 1454.35,-180 1448.02,-178.62 1441.4,-176.56 1435.22,-174.35"/>
</g>
<!-- YI_3&#45;&#45;LQ_0 -->
<g id="edge64" class="edge">
<title>YI_3&#45;&#45;LQ_0</title>
<path fill="none" stroke="black" d="M2118.89,-221.13C2141.82,-208.49 2177.96,-188.57 2201.41,-175.64"/>
</g>
<!-- YI_3&#45;&#45;WE_0 -->
<g id="edge63" class="edge">
<title>YI_3&#45;&#45;WE_0</title>
<path fill="none" stroke="black" d="M2097.35,-215.7C2097.35,-204.85 2097.35,-190.92 2097.35,-180.1"/>
</g>
<!-- ZW_14 -->
<g id="node57" class="node">
<title>ZW_14</title>
<ellipse fill="none" stroke="black" cx="743.35" cy="-162" rx="42.49" ry="18"/>
<text text-anchor="middle" x="743.35" y="-158.3" font-family="Times,serif" font-size="14.00">ZW_14</text>
</g>
<!-- ZW_14&#45;&#45;BY_0 -->
<g id="edge69" class="edge">
<title>ZW_14&#45;&#45;BY_0</title>
<path fill="none" stroke="black" d="M726.48,-145.46C713.71,-133.7 696.27,-117.64 683.64,-106.01"/>
</g>
<!-- ZW_14&#45;&#45;WO_0 -->
<g id="edge70" class="edge">
<title>ZW_14&#45;&#45;WO_0</title>
<path fill="none" stroke="black" d="M747.46,-144.05C750.1,-133.21 753.5,-119.18 756.15,-108.28"/>
</g>
</g>
</svg>
