<?xml version="1.0" encoding="UTF-8" standalone="no"?>
<!DOCTYPE svg PUBLIC "-//W3C//DTD SVG 1.1//EN"
 "http://www.w3.org/Graphics/SVG/1.1/DTD/svg11.dtd">
<!-- Generated by graphviz version 2.43.0 (0)
 -->
<!-- Title: %3 Pages: 1 -->
<svg width="2549pt" height="260pt"
 viewBox="0.00 0.00 2548.94 260.00" xmlns="http://www.w3.org/2000/svg" xmlns:xlink="http://www.w3.org/1999/xlink">
<g id="graph0" class="graph" transform="scale(1 1) rotate(0) translate(4 256)">
<title>%3</title>
<polygon fill="white" stroke="transparent" points="-4,4 -4,-256 2544.94,-256 2544.94,4 -4,4"/>
<!-- AA_0 -->
<g id="node1" class="node">
<title>AA_0</title>
<ellipse fill="none" stroke="black" cx="348.8" cy="-234" rx="33.6" ry="18"/>
<text text-anchor="middle" x="348.8" y="-230.3" font-family="Times,serif" font-size="14.00">AA_0</text>
</g>
<!-- ON_0 -->
<g id="node2" class="node">
<title>ON_0</title>
<ellipse fill="none" stroke="black" cx="197.8" cy="-162" rx="36.29" ry="18"/>
<text text-anchor="middle" x="197.8" y="-158.3" font-family="Times,serif" font-size="14.00">ON_0</text>
</g>
<!-- AA_0&#45;&#45;ON_0 -->
<g id="edge1" class="edge">
<title>AA_0&#45;&#45;ON_0</title>
<path fill="none" stroke="black" d="M324.2,-221.6C296.46,-208.74 251.54,-187.92 223.39,-174.87"/>
</g>
<!-- GE_0 -->
<g id="node3" class="node">
<title>GE_0</title>
<ellipse fill="none" stroke="black" cx="842.8" cy="-90" rx="35.19" ry="18"/>
<text text-anchor="middle" x="842.8" y="-86.3" font-family="Times,serif" font-size="14.00">GE_0</text>
</g>
<!-- AA_0&#45;&#45;GE_0 -->
<g id="edge2" class="edge">
<title>AA_0&#45;&#45;GE_0</title>
<path fill="none" stroke="black" d="M347.01,-216.02C345.91,-195.63 347.61,-161.95 367.8,-144 432.18,-86.76 668.5,-120.1 753.8,-108 772.8,-105.31 793.9,-101.32 810.79,-97.88"/>
</g>
<!-- VP_0 -->
<g id="node4" class="node">
<title>VP_0</title>
<ellipse fill="none" stroke="black" cx="410.8" cy="-162" rx="33.6" ry="18"/>
<text text-anchor="middle" x="410.8" y="-158.3" font-family="Times,serif" font-size="14.00">VP_0</text>
</g>
<!-- AA_0&#45;&#45;VP_0 -->
<g id="edge3" class="edge">
<title>AA_0&#45;&#45;VP_0</title>
<path fill="none" stroke="black" d="M362.56,-217.46C372.83,-205.86 386.81,-190.08 397.08,-178.49"/>
</g>
<!-- PC_0 -->
<g id="node5" class="node">
<title>PC_0</title>
<ellipse fill="none" stroke="black" cx="496.8" cy="-162" rx="34.39" ry="18"/>
<text text-anchor="middle" x="496.8" y="-158.3" font-family="Times,serif" font-size="14.00">PC_0</text>
</g>
<!-- AA_0&#45;&#45;PC_0 -->
<g id="edge4" class="edge">
<title>AA_0&#45;&#45;PC_0</title>
<path fill="none" stroke="black" d="M373.24,-221.44C400.49,-208.55 444.36,-187.8 471.83,-174.81"/>
</g>
<!-- YO_0 -->
<g id="node6" class="node">
<title>YO_0</title>
<ellipse fill="none" stroke="black" cx="286.8" cy="-162" rx="34.39" ry="18"/>
<text text-anchor="middle" x="286.8" y="-158.3" font-family="Times,serif" font-size="14.00">YO_0</text>
</g>
<!-- AA_0&#45;&#45;YO_0 -->
<g id="edge5" class="edge">
<title>AA_0&#45;&#45;YO_0</title>
<path fill="none" stroke="black" d="M335.04,-217.46C324.91,-206.03 311.17,-190.52 300.95,-178.98"/>
</g>
<!-- JW_0 -->
<g id="node20" class="node">
<title>JW_0</title>
<ellipse fill="none" stroke="black" cx="1091.8" cy="-90" rx="33.6" ry="18"/>
<text text-anchor="middle" x="1091.8" y="-86.3" font-family="Times,serif" font-size="14.00">JW_0</text>
</g>
<!-- VP_0&#45;&#45;JW_0 -->
<g id="edge50" class="edge">
<title>VP_0&#45;&#45;JW_0</title>
<path fill="none" stroke="black" d="M435.87,-149.67C441.65,-147.45 447.86,-145.39 453.8,-144 454.26,-143.89 927.25,-104.65 1058.42,-93.77"/>
</g>
<!-- AY_19 -->
<g id="node7" class="node">
<title>AY_19</title>
<ellipse fill="none" stroke="black" cx="625.8" cy="-90" rx="38.99" ry="18"/>
<text text-anchor="middle" x="625.8" y="-86.3" font-family="Times,serif" font-size="14.00">AY_19</text>
</g>
<!-- YO_0&#45;&#45;AY_19 -->
<g id="edge67" class="edge">
<title>YO_0&#45;&#45;AY_19</title>
<path fill="none" stroke="black" d="M313.72,-150.61C320.53,-148.22 327.88,-145.84 334.8,-144 424.61,-120.08 532.89,-103.49 588.63,-95.82"/>
</g>
<!-- DO_0 -->
<g id="node8" class="node">
<title>DO_0</title>
<ellipse fill="none" stroke="black" cx="1242.8" cy="-18" rx="36" ry="18"/>
<text text-anchor="middle" x="1242.8" y="-14.3" font-family="Times,serif" font-size="14.00">DO_0</text>
</g>
<!-- AY_19&#45;&#45;DO_0 -->
<g id="edge6" class="edge">
<title>AY_19&#45;&#45;DO_0</title>
<path fill="none" stroke="black" d="M654.4,-77.57C660.7,-75.42 667.41,-73.41 673.8,-72 871.94,-28.39 1116.61,-20.63 1207.04,-19.28"/>
</g>
<!-- FG_0 -->
<g id="node9" class="node">
<title>FG_0</title>
<ellipse fill="none" stroke="black" cx="815.8" cy="-18" rx="34.39" ry="18"/>
<text text-anchor="middle" x="815.8" y="-14.3" font-family="Times,serif" font-size="14.00">FG_0</text>
</g>
<!-- AY_19&#45;&#45;FG_0 -->
<g id="edge7" class="edge">
<title>AY_19&#45;&#45;FG_0</title>
<path fill="none" stroke="black" d="M655.48,-78.06C691.91,-64.64 753.16,-42.08 788.47,-29.07"/>
</g>
<!-- CY_0 -->
<g id="node10" class="node">
<title>CY_0</title>
<ellipse fill="none" stroke="black" cx="591.8" cy="-18" rx="33.6" ry="18"/>
<text text-anchor="middle" x="591.8" y="-14.3" font-family="Times,serif" font-size="14.00">CY_0</text>
</g>
<!-- AY_19&#45;&#45;CY_0 -->
<g id="edge8" class="edge">
<title>AY_19&#45;&#45;CY_0</title>
<path fill="none" stroke="black" d="M617.57,-72.05C612.22,-61.05 605.28,-46.76 599.95,-35.79"/>
</g>
<!-- BO_0 -->
<g id="node11" class="node">
<title>BO_0</title>
<ellipse fill="none" stroke="black" cx="2327.8" cy="-90" rx="35.19" ry="18"/>
<text text-anchor="middle" x="2327.8" y="-86.3" font-family="Times,serif" font-size="14.00">BO_0</text>
</g>
<!-- RT_21 -->
<g id="node12" class="node">
<title>RT_21</title>
<ellipse fill="none" stroke="black" cx="2291.8" cy="-18" rx="39.79" ry="18"/>
<text text-anchor="middle" x="2291.8" y="-14.3" font-family="Times,serif" font-size="14.00">RT_21</text>
</g>
<!-- BO_0&#45;&#45;RT_21 -->
<g id="edge9" class="edge">
<title>BO_0&#45;&#45;RT_21</title>
<path fill="none" stroke="black" d="M2319.27,-72.41C2313.61,-61.41 2306.21,-47.03 2300.52,-35.96"/>
</g>
<!-- BV_0 -->
<g id="node13" class="node">
<title>BV_0</title>
<ellipse fill="none" stroke="black" cx="2156.8" cy="-90" rx="34.39" ry="18"/>
<text text-anchor="middle" x="2156.8" y="-86.3" font-family="Times,serif" font-size="14.00">BV_0</text>
</g>
<!-- QO_12 -->
<g id="node14" class="node">
<title>QO_12</title>
<ellipse fill="none" stroke="black" cx="2156.8" cy="-18" rx="41.69" ry="18"/>
<text text-anchor="middle" x="2156.8" y="-14.3" font-family="Times,serif" font-size="14.00">QO_12</text>
</g>
<!-- BV_0&#45;&#45;QO_12 -->
<g id="edge10" class="edge">
<title>BV_0&#45;&#45;QO_12</title>
<path fill="none" stroke="black" d="M2156.8,-71.7C2156.8,-60.85 2156.8,-46.92 2156.8,-36.1"/>
</g>
<!-- CB_9 -->
<g id="node15" class="node">
<title>CB_9</title>
<ellipse fill="none" stroke="black" cx="1167.8" cy="-234" rx="34.39" ry="18"/>
<text text-anchor="middle" x="1167.8" y="-230.3" font-family="Times,serif" font-size="14.00">CB_9</text>
</g>
<!-- EX_0 -->
<g id="node16" class="node">
<title>EX_0</title>
<ellipse fill="none" stroke="black" cx="1229.8" cy="-162" rx="34.39" ry="18"/>
<text text-anchor="middle" x="1229.8" y="-158.3" font-family="Times,serif" font-size="14.00">EX_0</text>
</g>
<!-- CB_9&#45;&#45;EX_0 -->
<g id="edge11" class="edge">
<title>CB_9&#45;&#45;EX_0</title>
<path fill="none" stroke="black" d="M1181.56,-217.46C1191.69,-206.03 1205.42,-190.52 1215.65,-178.98"/>
</g>
<!-- UU_0 -->
<g id="node17" class="node">
<title>UU_0</title>
<ellipse fill="none" stroke="black" cx="1016.8" cy="-162" rx="36.29" ry="18"/>
<text text-anchor="middle" x="1016.8" y="-158.3" font-family="Times,serif" font-size="14.00">UU_0</text>
</g>
<!-- CB_9&#45;&#45;UU_0 -->
<g id="edge12" class="edge">
<title>CB_9&#45;&#45;UU_0</title>
<path fill="none" stroke="black" d="M1142.86,-221.44C1115.14,-208.59 1070.57,-187.93 1042.53,-174.93"/>
</g>
<!-- QZ_0 -->
<g id="node18" class="node">
<title>QZ_0</title>
<ellipse fill="none" stroke="black" cx="1407.8" cy="-162" rx="34.39" ry="18"/>
<text text-anchor="middle" x="1407.8" y="-158.3" font-family="Times,serif" font-size="14.00">QZ_0</text>
</g>
<!-- CB_9&#45;&#45;QZ_0 -->
<g id="edge13" class="edge">
<title>CB_9&#45;&#45;QZ_0</title>
<path fill="none" stroke="black" d="M1198.83,-225.81C1237.92,-216.49 1306.96,-199.14 1364.8,-180 1370.28,-178.18 1376.09,-176.04 1381.59,-173.91"/>
</g>
<!-- BP_0 -->
<g id="node19" class="node">
<title>BP_0</title>
<ellipse fill="none" stroke="black" cx="1105.8" cy="-162" rx="34.39" ry="18"/>
<text text-anchor="middle" x="1105.8" y="-158.3" font-family="Times,serif" font-size="14.00">BP_0</text>
</g>
<!-- CB_9&#45;&#45;BP_0 -->
<g id="edge14" class="edge">
<title>CB_9&#45;&#45;BP_0</title>
<path fill="none" stroke="black" d="M1154.04,-217.46C1143.91,-206.03 1130.17,-190.52 1119.95,-178.98"/>
</g>
<!-- CB_9&#45;&#45;JW_0 -->
<g id="edge15" class="edge">
<title>CB_9&#45;&#45;JW_0</title>
<path fill="none" stroke="black" d="M1167.18,-215.85C1165.84,-197.09 1161.66,-166.67 1148.8,-144 1139.8,-128.13 1124.44,-114.26 1111.93,-104.69"/>
</g>
<!-- CH_0 -->
<g id="node21" class="node">
<title>CH_0</title>
<ellipse fill="none" stroke="black" cx="1805.8" cy="-234" rx="36" ry="18"/>
<text text-anchor="middle" x="1805.8" y="-230.3" font-family="Times,serif" font-size="14.00">CH_0</text>
</g>
<!-- VR_24 -->
<g id="node22" class="node">
<title>VR_24</title>
<ellipse fill="none" stroke="black" cx="1714.8" cy="-162" rx="40.09" ry="18"/>
<text text-anchor="middle" x="1714.8" y="-158.3" font-family="Times,serif" font-size="14.00">VR_24</text>
</g>
<!-- CH_0&#45;&#45;VR_24 -->
<g id="edge16" class="edge">
<title>CH_0&#45;&#45;VR_24</title>
<path fill="none" stroke="black" d="M1786.94,-218.5C1771.53,-206.64 1749.83,-189.95 1734.26,-177.97"/>
</g>
<!-- NW_0 -->
<g id="node23" class="node">
<title>NW_0</title>
<ellipse fill="none" stroke="black" cx="1811.8" cy="-162" rx="38.19" ry="18"/>
<text text-anchor="middle" x="1811.8" y="-158.3" font-family="Times,serif" font-size="14.00">NW_0</text>
</g>
<!-- CH_0&#45;&#45;NW_0 -->
<g id="edge17" class="edge">
<title>CH_0&#45;&#45;NW_0</title>
<path fill="none" stroke="black" d="M1807.28,-215.7C1808.21,-204.85 1809.4,-190.92 1810.33,-180.1"/>
</g>
<!-- WT_25 -->
<g id="node28" class="node">
<title>WT_25</title>
<ellipse fill="none" stroke="black" cx="1582.8" cy="-90" rx="42.49" ry="18"/>
<text text-anchor="middle" x="1582.8" y="-86.3" font-family="Times,serif" font-size="14.00">WT_25</text>
</g>
<!-- NW_0&#45;&#45;WT_25 -->
<g id="edge38" class="edge">
<title>NW_0&#45;&#45;WT_25</title>
<path fill="none" stroke="black" d="M1782.44,-150.31C1776.3,-148.16 1769.85,-145.96 1763.8,-144 1713.17,-127.64 1653.88,-110.69 1617.33,-100.5"/>
</g>
<!-- CS_0 -->
<g id="node24" class="node">
<title>CS_0</title>
<ellipse fill="none" stroke="black" cx="1487.8" cy="-90" rx="34.39" ry="18"/>
<text text-anchor="middle" x="1487.8" y="-86.3" font-family="Times,serif" font-size="14.00">CS_0</text>
</g>
<!-- SY_23 -->
<g id="node25" class="node">
<title>SY_23</title>
<ellipse fill="none" stroke="black" cx="1487.8" cy="-18" rx="38.99" ry="18"/>
<text text-anchor="middle" x="1487.8" y="-14.3" font-family="Times,serif" font-size="14.00">SY_23</text>
</g>
<!-- CS_0&#45;&#45;SY_23 -->
<g id="edge18" class="edge">
<title>CS_0&#45;&#45;SY_23</title>
<path fill="none" stroke="black" d="M1487.8,-71.7C1487.8,-60.85 1487.8,-46.92 1487.8,-36.1"/>
</g>
<!-- HS_0 -->
<g id="node26" class="node">
<title>HS_0</title>
<ellipse fill="none" stroke="black" cx="1581.8" cy="-18" rx="35.19" ry="18"/>
<text text-anchor="middle" x="1581.8" y="-14.3" font-family="Times,serif" font-size="14.00">HS_0</text>
</g>
<!-- CS_0&#45;&#45;HS_0 -->
<g id="edge19" class="edge">
<title>CS_0&#45;&#45;HS_0</title>
<path fill="none" stroke="black" d="M1506.82,-74.83C1523.13,-62.69 1546.5,-45.28 1562.8,-33.14"/>
</g>
<!-- DG_0 -->
<g id="node27" class="node">
<title>DG_0</title>
<ellipse fill="none" stroke="black" cx="1533.8" cy="-162" rx="36" ry="18"/>
<text text-anchor="middle" x="1533.8" y="-158.3" font-family="Times,serif" font-size="14.00">DG_0</text>
</g>
<!-- DG_0&#45;&#45;WT_25 -->
<g id="edge20" class="edge">
<title>DG_0&#45;&#45;WT_25</title>
<path fill="none" stroke="black" d="M1545.16,-144.76C1552.96,-133.62 1563.29,-118.87 1571.15,-107.63"/>
</g>
<!-- WT_25&#45;&#45;HS_0 -->
<g id="edge53" class="edge">
<title>WT_25&#45;&#45;HS_0</title>
<path fill="none" stroke="black" d="M1582.55,-71.7C1582.39,-60.85 1582.2,-46.92 1582.04,-36.1"/>
</g>
<!-- FT_0 -->
<g id="node29" class="node">
<title>FT_0</title>
<ellipse fill="none" stroke="black" cx="2130.8" cy="-234" rx="33.29" ry="18"/>
<text text-anchor="middle" x="2130.8" y="-230.3" font-family="Times,serif" font-size="14.00">FT_0</text>
</g>
<!-- VG_15 -->
<g id="node30" class="node">
<title>VG_15</title>
<ellipse fill="none" stroke="black" cx="2063.8" cy="-90" rx="40.09" ry="18"/>
<text text-anchor="middle" x="2063.8" y="-86.3" font-family="Times,serif" font-size="14.00">VG_15</text>
</g>
<!-- FT_0&#45;&#45;VG_15 -->
<g id="edge21" class="edge">
<title>FT_0&#45;&#45;VG_15</title>
<path fill="none" stroke="black" d="M2122.98,-216.43C2110.14,-189.22 2084.72,-135.33 2071.77,-107.9"/>
</g>
<!-- XI_10 -->
<g id="node31" class="node">
<title>XI_10</title>
<ellipse fill="none" stroke="black" cx="2162.8" cy="-162" rx="36.29" ry="18"/>
<text text-anchor="middle" x="2162.8" y="-158.3" font-family="Times,serif" font-size="14.00">XI_10</text>
</g>
<!-- FT_0&#45;&#45;XI_10 -->
<g id="edge22" class="edge">
<title>FT_0&#45;&#45;XI_10</title>
<path fill="none" stroke="black" d="M2138.38,-216.41C2143.41,-205.41 2149.98,-191.03 2155.05,-179.96"/>
</g>
<!-- XI_10&#45;&#45;BV_0 -->
<g id="edge55" class="edge">
<title>XI_10&#45;&#45;BV_0</title>
<path fill="none" stroke="black" d="M2161.31,-143.7C2160.38,-132.85 2159.19,-118.92 2158.26,-108.1"/>
</g>
<!-- JV_0 -->
<g id="node49" class="node">
<title>JV_0</title>
<ellipse fill="none" stroke="black" cx="1920.8" cy="-90" rx="30.59" ry="18"/>
<text text-anchor="middle" x="1920.8" y="-86.3" font-family="Times,serif" font-size="14.00">JV_0</text>
</g>
<!-- XI_10&#45;&#45;JV_0 -->
<g id="edge54" class="edge">
<title>XI_10&#45;&#45;JV_0</title>
<path fill="none" stroke="black" d="M2132.15,-152.13C2084.45,-138.34 1993.25,-111.96 1947.85,-98.83"/>
</g>
<!-- WO_0 -->
<g id="node53" class="node">
<title>WO_0</title>
<ellipse fill="none" stroke="black" cx="2418.8" cy="-90" rx="37.89" ry="18"/>
<text text-anchor="middle" x="2418.8" y="-86.3" font-family="Times,serif" font-size="14.00">WO_0</text>
</g>
<!-- XI_10&#45;&#45;WO_0 -->
<g id="edge56" class="edge">
<title>XI_10&#45;&#45;WO_0</title>
<path fill="none" stroke="black" d="M2195.29,-153.81C2236.63,-144.42 2310.07,-126.94 2371.8,-108 2377.77,-106.17 2384.1,-104.02 2390.12,-101.88"/>
</g>
<!-- GC_20 -->
<g id="node32" class="node">
<title>GC_20</title>
<ellipse fill="none" stroke="black" cx="1469.8" cy="-234" rx="40.89" ry="18"/>
<text text-anchor="middle" x="1469.8" y="-230.3" font-family="Times,serif" font-size="14.00">GC_20</text>
</g>
<!-- GC_20&#45;&#45;EX_0 -->
<g id="edge23" class="edge">
<title>GC_20&#45;&#45;EX_0</title>
<path fill="none" stroke="black" d="M1434.57,-224.8C1394.87,-215.28 1328.61,-198.47 1272.8,-180 1267.31,-178.18 1261.51,-176.04 1256,-173.91"/>
</g>
<!-- GC_20&#45;&#45;DG_0 -->
<g id="edge25" class="edge">
<title>GC_20&#45;&#45;DG_0</title>
<path fill="none" stroke="black" d="M1484.32,-217.12C1494.79,-205.66 1508.87,-190.26 1519.33,-178.82"/>
</g>
<!-- WC_0 -->
<g id="node33" class="node">
<title>WC_0</title>
<ellipse fill="none" stroke="black" cx="1318.8" cy="-162" rx="37.09" ry="18"/>
<text text-anchor="middle" x="1318.8" y="-158.3" font-family="Times,serif" font-size="14.00">WC_0</text>
</g>
<!-- GC_20&#45;&#45;WC_0 -->
<g id="edge24" class="edge">
<title>GC_20&#45;&#45;WC_0</title>
<path fill="none" stroke="black" d="M1442.45,-220.32C1414.66,-207.44 1371.93,-187.63 1344.68,-175"/>
</g>
<!-- ZK_0 -->
<g id="node34" class="node">
<title>ZK_0</title>
<ellipse fill="none" stroke="black" cx="1621.8" cy="-162" rx="34.39" ry="18"/>
<text text-anchor="middle" x="1621.8" y="-158.3" font-family="Times,serif" font-size="14.00">ZK_0</text>
</g>
<!-- GC_20&#45;&#45;ZK_0 -->
<g id="edge26" class="edge">
<title>GC_20&#45;&#45;ZK_0</title>
<path fill="none" stroke="black" d="M1496.97,-220.49C1525.32,-207.43 1569.39,-187.13 1596.87,-174.48"/>
</g>
<!-- KF_0 -->
<g id="node35" class="node">
<title>KF_0</title>
<ellipse fill="none" stroke="black" cx="1397.8" cy="-90" rx="34.39" ry="18"/>
<text text-anchor="middle" x="1397.8" y="-86.3" font-family="Times,serif" font-size="14.00">KF_0</text>
</g>
<!-- GC_20&#45;&#45;KF_0 -->
<g id="edge27" class="edge">
<title>GC_20&#45;&#45;KF_0</title>
<path fill="none" stroke="black" d="M1469.02,-215.94C1467.54,-197.26 1463.25,-166.9 1450.8,-144 1442.47,-128.68 1428.34,-114.88 1416.76,-105.2"/>
</g>
<!-- JS_8 -->
<g id="node39" class="node">
<title>JS_8</title>
<ellipse fill="none" stroke="black" cx="713.8" cy="-90" rx="30.59" ry="18"/>
<text text-anchor="middle" x="713.8" y="-86.3" font-family="Times,serif" font-size="14.00">JS_8</text>
</g>
<!-- WC_0&#45;&#45;JS_8 -->
<g id="edge51" class="edge">
<title>WC_0&#45;&#45;JS_8</title>
<path fill="none" stroke="black" d="M1291.44,-149.48C1285.39,-147.33 1278.95,-145.34 1272.8,-144 1066.38,-98.95 1008.1,-136.77 798.8,-108 779.71,-105.38 758.46,-101.13 741.98,-97.53"/>
</g>
<!-- DP_0 -->
<g id="node50" class="node">
<title>DP_0</title>
<ellipse fill="none" stroke="black" cx="1739.8" cy="-90" rx="34.39" ry="18"/>
<text text-anchor="middle" x="1739.8" y="-86.3" font-family="Times,serif" font-size="14.00">DP_0</text>
</g>
<!-- ZK_0&#45;&#45;DP_0 -->
<g id="edge68" class="edge">
<title>ZK_0&#45;&#45;DP_0</title>
<path fill="none" stroke="black" d="M1643.72,-148C1664.78,-135.5 1696.44,-116.72 1717.6,-104.17"/>
</g>
<!-- KF_0&#45;&#45;DO_0 -->
<g id="edge35" class="edge">
<title>KF_0&#45;&#45;DO_0</title>
<path fill="none" stroke="black" d="M1372.55,-77.6C1343.9,-64.66 1297.41,-43.66 1268.55,-30.63"/>
</g>
<!-- HU_0 -->
<g id="node36" class="node">
<title>HU_0</title>
<ellipse fill="none" stroke="black" cx="888.8" cy="-162" rx="36.29" ry="18"/>
<text text-anchor="middle" x="888.8" y="-158.3" font-family="Times,serif" font-size="14.00">HU_0</text>
</g>
<!-- HU_0&#45;&#45;GE_0 -->
<g id="edge28" class="edge">
<title>HU_0&#45;&#45;GE_0</title>
<path fill="none" stroke="black" d="M878.13,-144.76C870.8,-133.62 861.11,-118.87 853.73,-107.63"/>
</g>
<!-- IC_0 -->
<g id="node37" class="node">
<title>IC_0</title>
<ellipse fill="none" stroke="black" cx="1637.8" cy="-234" rx="31.4" ry="18"/>
<text text-anchor="middle" x="1637.8" y="-230.3" font-family="Times,serif" font-size="14.00">IC_0</text>
</g>
<!-- IC_0&#45;&#45;QZ_0 -->
<g id="edge30" class="edge">
<title>IC_0&#45;&#45;QZ_0</title>
<path fill="none" stroke="black" d="M1610.51,-224.7C1566.84,-211.4 1481.62,-185.47 1436.86,-171.84"/>
</g>
<!-- IC_0&#45;&#45;VR_24 -->
<g id="edge29" class="edge">
<title>IC_0&#45;&#45;VR_24</title>
<path fill="none" stroke="black" d="M1653.75,-218.5C1666.61,-206.8 1684.66,-190.4 1697.79,-178.46"/>
</g>
<!-- JN_0 -->
<g id="node38" class="node">
<title>JN_0</title>
<ellipse fill="none" stroke="black" cx="64.8" cy="-234" rx="32.49" ry="18"/>
<text text-anchor="middle" x="64.8" y="-230.3" font-family="Times,serif" font-size="14.00">JN_0</text>
</g>
<!-- JN_0&#45;&#45;JS_8 -->
<g id="edge31" class="edge">
<title>JN_0&#45;&#45;JS_8</title>
<path fill="none" stroke="black" d="M73.64,-216.34C85.84,-195.28 109.98,-159.86 141.8,-144 247.84,-91.12 558.55,-135.56 673.8,-108 679.52,-106.63 685.47,-104.52 690.98,-102.24"/>
</g>
<!-- ZX_0 -->
<g id="node40" class="node">
<title>ZX_0</title>
<ellipse fill="none" stroke="black" cx="33.8" cy="-162" rx="33.6" ry="18"/>
<text text-anchor="middle" x="33.8" y="-158.3" font-family="Times,serif" font-size="14.00">ZX_0</text>
</g>
<!-- JN_0&#45;&#45;ZX_0 -->
<g id="edge32" class="edge">
<title>JN_0&#45;&#45;ZX_0</title>
<path fill="none" stroke="black" d="M57.45,-216.41C52.58,-205.41 46.21,-191.03 41.31,-179.96"/>
</g>
<!-- ZX_0&#45;&#45;AY_19 -->
<g id="edge71" class="edge">
<title>ZX_0&#45;&#45;AY_19</title>
<path fill="none" stroke="black" d="M59.87,-150.47C66.89,-148 74.55,-145.61 81.8,-144 267.75,-102.66 496.59,-93.56 586.7,-91.56"/>
</g>
<!-- KC_0 -->
<g id="node41" class="node">
<title>KC_0</title>
<ellipse fill="none" stroke="black" cx="189.8" cy="-234" rx="34.39" ry="18"/>
<text text-anchor="middle" x="189.8" y="-230.3" font-family="Times,serif" font-size="14.00">KC_0</text>
</g>
<!-- KC_0&#45;&#45;ON_0 -->
<g id="edge33" class="edge">
<title>KC_0&#45;&#45;ON_0</title>
<path fill="none" stroke="black" d="M191.77,-215.7C193.01,-204.85 194.61,-190.92 195.84,-180.1"/>
</g>
<!-- KC_0&#45;&#45;JS_8 -->
<g id="edge34" class="edge">
<title>KC_0&#45;&#45;JS_8</title>
<path fill="none" stroke="black" d="M174.42,-217.67C156.89,-198.37 133.05,-165.16 152.8,-144 192.39,-101.58 617.37,-121.54 673.8,-108 679.52,-106.63 685.47,-104.51 690.98,-102.24"/>
</g>
<!-- LG_0 -->
<g id="node42" class="node">
<title>LG_0</title>
<ellipse fill="none" stroke="black" cx="2287.8" cy="-162" rx="34.39" ry="18"/>
<text text-anchor="middle" x="2287.8" y="-158.3" font-family="Times,serif" font-size="14.00">LG_0</text>
</g>
<!-- LG_0&#45;&#45;BO_0 -->
<g id="edge37" class="edge">
<title>LG_0&#45;&#45;BO_0</title>
<path fill="none" stroke="black" d="M2297.28,-144.41C2303.65,-133.25 2312.02,-118.6 2318.39,-107.47"/>
</g>
<!-- LG_0&#45;&#45;VG_15 -->
<g id="edge36" class="edge">
<title>LG_0&#45;&#45;VG_15</title>
<path fill="none" stroke="black" d="M2258.46,-152.38C2223.8,-142.12 2164.44,-124.32 2113.8,-108 2107.6,-106 2101,-103.81 2094.69,-101.67"/>
</g>
<!-- PF_0 -->
<g id="node43" class="node">
<title>PF_0</title>
<ellipse fill="none" stroke="black" cx="2391.8" cy="-162" rx="33.6" ry="18"/>
<text text-anchor="middle" x="2391.8" y="-158.3" font-family="Times,serif" font-size="14.00">PF_0</text>
</g>
<!-- PF_0&#45;&#45;VG_15 -->
<g id="edge39" class="edge">
<title>PF_0&#45;&#45;VG_15</title>
<path fill="none" stroke="black" d="M2363.1,-152.32C2352.95,-149.43 2341.42,-146.35 2330.8,-144 2235.35,-122.85 2208.61,-131.81 2113.8,-108 2107.31,-106.37 2100.45,-104.29 2093.97,-102.14"/>
</g>
<!-- BY_0 -->
<g id="node44" class="node">
<title>BY_0</title>
<ellipse fill="none" stroke="black" cx="2507.8" cy="-90" rx="33.29" ry="18"/>
<text text-anchor="middle" x="2507.8" y="-86.3" font-family="Times,serif" font-size="14.00">BY_0</text>
</g>
<!-- PF_0&#45;&#45;BY_0 -->
<g id="edge40" class="edge">
<title>PF_0&#45;&#45;BY_0</title>
<path fill="none" stroke="black" d="M2413.34,-148C2434.18,-135.42 2465.57,-116.48 2486.37,-103.93"/>
</g>
<!-- PW_6 -->
<g id="node45" class="node">
<title>PW_6</title>
<ellipse fill="none" stroke="black" cx="888.8" cy="-234" rx="36.29" ry="18"/>
<text text-anchor="middle" x="888.8" y="-230.3" font-family="Times,serif" font-size="14.00">PW_6</text>
</g>
<!-- PW_6&#45;&#45;FG_0 -->
<g id="edge44" class="edge">
<title>PW_6&#45;&#45;FG_0</title>
<path fill="none" stroke="black" d="M906.84,-217.83C916.87,-208.17 928.39,-194.73 933.8,-180 939.31,-164.98 938.36,-159.34 933.8,-144 922.9,-107.37 912.96,-99.86 886.8,-72 872.06,-56.3 852.2,-41.92 837.24,-32.11"/>
</g>
<!-- PW_6&#45;&#45;BP_0 -->
<g id="edge45" class="edge">
<title>PW_6&#45;&#45;BP_0</title>
<path fill="none" stroke="black" d="M919.64,-224.27C954.41,-214.27 1012.52,-197.04 1061.8,-180 1067.52,-178.02 1073.62,-175.76 1079.39,-173.56"/>
</g>
<!-- PW_6&#45;&#45;HU_0 -->
<g id="edge43" class="edge">
<title>PW_6&#45;&#45;HU_0</title>
<path fill="none" stroke="black" d="M888.8,-215.7C888.8,-204.85 888.8,-190.92 888.8,-180.1"/>
</g>
<!-- LQ_0 -->
<g id="node46" class="node">
<title>LQ_0</title>
<ellipse fill="none" stroke="black" cx="712.8" cy="-162" rx="34.39" ry="18"/>
<text text-anchor="middle" x="712.8" y="-158.3" font-family="Times,serif" font-size="14.00">LQ_0</text>
</g>
<!-- PW_6&#45;&#45;LQ_0 -->
<g id="edge41" class="edge">
<title>PW_6&#45;&#45;LQ_0</title>
<path fill="none" stroke="black" d="M861.3,-222.06C828.04,-208.83 772.44,-186.72 739.53,-173.63"/>
</g>
<!-- YN_0 -->
<g id="node47" class="node">
<title>YN_0</title>
<ellipse fill="none" stroke="black" cx="799.8" cy="-162" rx="34.39" ry="18"/>
<text text-anchor="middle" x="799.8" y="-158.3" font-family="Times,serif" font-size="14.00">YN_0</text>
</g>
<!-- PW_6&#45;&#45;YN_0 -->
<g id="edge42" class="edge">
<title>PW_6&#45;&#45;YN_0</title>
<path fill="none" stroke="black" d="M869.92,-218.15C854.61,-206.12 833.17,-189.25 818.04,-177.35"/>
</g>
<!-- YN_0&#45;&#45;JS_8 -->
<g id="edge66" class="edge">
<title>YN_0&#45;&#45;JS_8</title>
<path fill="none" stroke="black" d="M781.98,-146.5C767.02,-134.32 745.79,-117.04 731.01,-105.01"/>
</g>
<!-- QT_13 -->
<g id="node48" class="node">
<title>QT_13</title>
<ellipse fill="none" stroke="black" cx="1908.8" cy="-162" rx="40.09" ry="18"/>
<text text-anchor="middle" x="1908.8" y="-158.3" font-family="Times,serif" font-size="14.00">QT_13</text>
</g>
<!-- QT_13&#45;&#45;JV_0 -->
<g id="edge46" class="edge">
<title>QT_13&#45;&#45;JV_0</title>
<path fill="none" stroke="black" d="M1911.76,-143.7C1913.62,-132.85 1916.01,-118.92 1917.86,-108.1"/>
</g>
<!-- QT_13&#45;&#45;DP_0 -->
<g id="edge47" class="edge">
<title>QT_13&#45;&#45;DP_0</title>
<path fill="none" stroke="black" d="M1880.13,-149.13C1848.2,-135.9 1797.03,-114.71 1766.1,-101.89"/>
</g>
<!-- TF_0 -->
<g id="node51" class="node">
<title>TF_0</title>
<ellipse fill="none" stroke="black" cx="1999.8" cy="-162" rx="33.29" ry="18"/>
<text text-anchor="middle" x="1999.8" y="-158.3" font-family="Times,serif" font-size="14.00">TF_0</text>
</g>
<!-- TF_0&#45;&#45;QO_12 -->
<g id="edge49" class="edge">
<title>TF_0&#45;&#45;QO_12</title>
<path fill="none" stroke="black" d="M1997.95,-143.88C1996.81,-124.28 1998.04,-92.3 2014.8,-72 2039.93,-41.56 2084.36,-28.6 2116.85,-23.08"/>
</g>
<!-- TF_0&#45;&#45;VG_15 -->
<g id="edge48" class="edge">
<title>TF_0&#45;&#45;VG_15</title>
<path fill="none" stroke="black" d="M2014,-145.46C2024.46,-134.03 2038.64,-118.52 2049.19,-106.98"/>
</g>
<!-- WE_0 -->
<g id="node52" class="node">
<title>WE_0</title>
<ellipse fill="none" stroke="black" cx="623.8" cy="-162" rx="37.09" ry="18"/>
<text text-anchor="middle" x="623.8" y="-158.3" font-family="Times,serif" font-size="14.00">WE_0</text>
</g>
<!-- WE_0&#45;&#45;JS_8 -->
<g id="edge52" class="edge">
<title>WE_0&#45;&#45;JS_8</title>
<path fill="none" stroke="black" d="M642.88,-146.15C658.57,-133.95 680.63,-116.8 695.96,-104.87"/>
</g>
<!-- XZ_0 -->
<g id="node54" class="node">
<title>XZ_0</title>
<ellipse fill="none" stroke="black" cx="1993.8" cy="-234" rx="33.6" ry="18"/>
<text text-anchor="middle" x="1993.8" y="-230.3" font-family="Times,serif" font-size="14.00">XZ_0</text>
</g>
<!-- XZ_0&#45;&#45;VG_15 -->
<g id="edge57" class="edge">
<title>XZ_0&#45;&#45;VG_15</title>
<path fill="none" stroke="black" d="M2010.79,-218.37C2021.2,-208.52 2033.98,-194.68 2041.8,-180 2054.06,-156.96 2059.64,-126.91 2062.07,-108.29"/>
</g>
<!-- XZ_0&#45;&#45;QT_13 -->
<g id="edge58" class="edge">
<title>XZ_0&#45;&#45;QT_13</title>
<path fill="none" stroke="black" d="M1976.18,-218.5C1961.89,-206.72 1941.79,-190.17 1927.27,-178.21"/>
</g>
<!-- YA_0 -->
<g id="node55" class="node">
<title>YA_0</title>
<ellipse fill="none" stroke="black" cx="2241.8" cy="-90" rx="32.49" ry="18"/>
<text text-anchor="middle" x="2241.8" y="-86.3" font-family="Times,serif" font-size="14.00">YA_0</text>
</g>
<!-- YA_0&#45;&#45;RT_21 -->
<g id="edge60" class="edge">
<title>YA_0&#45;&#45;RT_21</title>
<path fill="none" stroke="black" d="M2253.14,-73.12C2261.21,-61.82 2272.01,-46.7 2280.15,-35.31"/>
</g>
<!-- YA_0&#45;&#45;QO_12 -->
<g id="edge59" class="edge">
<title>YA_0&#45;&#45;QO_12</title>
<path fill="none" stroke="black" d="M2224.18,-74.5C2209.89,-62.72 2189.79,-46.17 2175.27,-34.21"/>
</g>
<!-- YI_3 -->
<g id="node56" class="node">
<title>YI_3</title>
<ellipse fill="none" stroke="black" cx="623.8" cy="-234" rx="30.59" ry="18"/>
<text text-anchor="middle" x="623.8" y="-230.3" font-family="Times,serif" font-size="14.00">YI_3</text>
</g>
<!-- YI_3&#45;&#45;PC_0 -->
<g id="edge64" class="edge">
<title>YI_3&#45;&#45;PC_0</title>
<path fill="none" stroke="black" d="M602.25,-221.13C579.32,-208.49 543.18,-188.57 519.74,-175.64"/>
</g>
<!-- YI_3&#45;&#45;CY_0 -->
<g id="edge65" class="edge">
<title>YI_3&#45;&#45;CY_0</title>
<path fill="none" stroke="black" d="M606.3,-218.78C595.84,-209.1 583.51,-195.29 577.8,-180 559.25,-130.32 575.72,-66.24 585.61,-36.1"/>
</g>
<!-- YI_3&#45;&#45;UU_0 -->
<g id="edge62" class="edge">
<title>YI_3&#45;&#45;UU_0</title>
<path fill="none" stroke="black" d="M652.92,-228.35C707.91,-219.49 830.77,-199.35 933.8,-180 950.42,-176.88 968.86,-173.13 984.13,-169.95"/>
</g>
<!-- YI_3&#45;&#45;LQ_0 -->
<g id="edge61" class="edge">
<title>YI_3&#45;&#45;LQ_0</title>
<path fill="none" stroke="black" d="M641.38,-219.17C656.68,-207.14 678.78,-189.76 694.33,-177.52"/>
</g>
<!-- YI_3&#45;&#45;WE_0 -->
<g id="edge63" class="edge">
<title>YI_3&#45;&#45;WE_0</title>
<path fill="none" stroke="black" d="M623.8,-215.7C623.8,-204.85 623.8,-190.92 623.8,-180.1"/>
</g>
<!-- ZW_14 -->
<g id="node57" class="node">
<title>ZW_14</title>
<ellipse fill="none" stroke="black" cx="2494.8" cy="-162" rx="42.49" ry="18"/>
<text text-anchor="middle" x="2494.8" y="-158.3" font-family="Times,serif" font-size="14.00">ZW_14</text>
</g>
<!-- ZW_14&#45;&#45;BY_0 -->
<g id="edge70" class="edge">
<title>ZW_14&#45;&#45;BY_0</title>
<path fill="none" stroke="black" d="M2498.01,-143.7C2500.03,-132.85 2502.61,-118.92 2504.62,-108.1"/>
</g>
<!-- ZW_14&#45;&#45;WO_0 -->
<g id="edge69" class="edge">
<title>ZW_14&#45;&#45;WO_0</title>
<path fill="none" stroke="black" d="M2477.93,-145.46C2465.25,-133.78 2447.96,-117.86 2435.36,-106.25"/>
</g>
</g>
</svg>
