<?xml version="1.0" encoding="UTF-8" standalone="no"?>
<!DOCTYPE svg PUBLIC "-//W3C//DTD SVG 1.1//EN"
 "http://www.w3.org/Graphics/SVG/1.1/DTD/svg11.dtd">
<!-- Generated by graphviz version 2.43.0 (0)
 -->
<!-- Title: %3 Pages: 1 -->
<svg width="343pt" height="332pt"
 viewBox="0.00 0.00 343.04 332.00" xmlns="http://www.w3.org/2000/svg" xmlns:xlink="http://www.w3.org/1999/xlink">
<g id="graph0" class="graph" transform="scale(1 1) rotate(0) translate(4 328)">
<title>%3</title>
<polygon fill="white" stroke="transparent" points="-4,4 -4,-328 339.04,-328 339.04,4 -4,4"/>
<!-- BB_13 -->
<g id="node1" class="node">
<title>BB_13</title>
<ellipse fill="none" stroke="black" cx="215.25" cy="-306" rx="40.09" ry="18"/>
<text text-anchor="middle" x="215.25" y="-302.3" font-family="Times,serif" font-size="14.00">BB_13</text>
</g>
<!-- AA_0 -->
<g id="node2" class="node">
<title>AA_0</title>
<ellipse fill="none" stroke="black" cx="215.25" cy="-234" rx="33.6" ry="18"/>
<text text-anchor="middle" x="215.25" y="-230.3" font-family="Times,serif" font-size="14.00">AA_0</text>
</g>
<!-- BB_13&#45;&#45;AA_0 -->
<g id="edge1" class="edge">
<title>BB_13&#45;&#45;AA_0</title>
<path fill="none" stroke="black" d="M215.25,-287.7C215.25,-276.85 215.25,-262.92 215.25,-252.1"/>
</g>
<!-- CC_2 -->
<g id="node3" class="node">
<title>CC_2</title>
<ellipse fill="none" stroke="black" cx="129.25" cy="-234" rx="34.39" ry="18"/>
<text text-anchor="middle" x="129.25" y="-230.3" font-family="Times,serif" font-size="14.00">CC_2</text>
</g>
<!-- BB_13&#45;&#45;CC_2 -->
<g id="edge2" class="edge">
<title>BB_13&#45;&#45;CC_2</title>
<path fill="none" stroke="black" d="M196.59,-289.81C181.86,-277.83 161.47,-261.23 146.99,-249.44"/>
</g>
<!-- DD_20 -->
<g id="node4" class="node">
<title>DD_20</title>
<ellipse fill="none" stroke="black" cx="115.25" cy="-306" rx="41.69" ry="18"/>
<text text-anchor="middle" x="115.25" y="-302.3" font-family="Times,serif" font-size="14.00">DD_20</text>
</g>
<!-- DD_20&#45;&#45;AA_0 -->
<g id="edge3" class="edge">
<title>DD_20&#45;&#45;AA_0</title>
<path fill="none" stroke="black" d="M136.45,-290.15C153.88,-277.95 178.39,-260.8 195.43,-248.87"/>
</g>
<!-- DD_20&#45;&#45;CC_2 -->
<g id="edge4" class="edge">
<title>DD_20&#45;&#45;CC_2</title>
<path fill="none" stroke="black" d="M118.64,-288.05C120.8,-277.21 123.61,-263.18 125.79,-252.28"/>
</g>
<!-- EE_3 -->
<g id="node5" class="node">
<title>EE_3</title>
<ellipse fill="none" stroke="black" cx="42.25" cy="-234" rx="34.39" ry="18"/>
<text text-anchor="middle" x="42.25" y="-230.3" font-family="Times,serif" font-size="14.00">EE_3</text>
</g>
<!-- DD_20&#45;&#45;EE_3 -->
<g id="edge5" class="edge">
<title>DD_20&#45;&#45;EE_3</title>
<path fill="none" stroke="black" d="M98.68,-289.12C86.57,-277.5 70.22,-261.83 58.24,-250.34"/>
</g>
<!-- FF_0 -->
<g id="node6" class="node">
<title>FF_0</title>
<ellipse fill="none" stroke="black" cx="42.25" cy="-162" rx="33.6" ry="18"/>
<text text-anchor="middle" x="42.25" y="-158.3" font-family="Times,serif" font-size="14.00">FF_0</text>
</g>
<!-- EE_3&#45;&#45;FF_0 -->
<g id="edge6" class="edge">
<title>EE_3&#45;&#45;FF_0</title>
<path fill="none" stroke="black" d="M42.25,-215.7C42.25,-204.85 42.25,-190.92 42.25,-180.1"/>
</g>
<!-- GG_0 -->
<g id="node7" class="node">
<title>GG_0</title>
<ellipse fill="none" stroke="black" cx="42.25" cy="-90" rx="36" ry="18"/>
<text text-anchor="middle" x="42.25" y="-86.3" font-family="Times,serif" font-size="14.00">GG_0</text>
</g>
<!-- FF_0&#45;&#45;GG_0 -->
<g id="edge7" class="edge">
<title>FF_0&#45;&#45;GG_0</title>
<path fill="none" stroke="black" d="M42.25,-143.7C42.25,-132.85 42.25,-118.92 42.25,-108.1"/>
</g>
<!-- HH_22 -->
<g id="node8" class="node">
<title>HH_22</title>
<ellipse fill="none" stroke="black" cx="42.25" cy="-18" rx="42.49" ry="18"/>
<text text-anchor="middle" x="42.25" y="-14.3" font-family="Times,serif" font-size="14.00">HH_22</text>
</g>
<!-- GG_0&#45;&#45;HH_22 -->
<g id="edge8" class="edge">
<title>GG_0&#45;&#45;HH_22</title>
<path fill="none" stroke="black" d="M42.25,-71.7C42.25,-60.85 42.25,-46.92 42.25,-36.1"/>
</g>
<!-- II_0 -->
<g id="node9" class="node">
<title>II_0</title>
<ellipse fill="none" stroke="black" cx="301.25" cy="-306" rx="27.9" ry="18"/>
<text text-anchor="middle" x="301.25" y="-302.3" font-family="Times,serif" font-size="14.00">II_0</text>
</g>
<!-- II_0&#45;&#45;AA_0 -->
<g id="edge9" class="edge">
<title>II_0&#45;&#45;AA_0</title>
<path fill="none" stroke="black" d="M284.66,-291.5C269.83,-279.43 248.14,-261.77 232.96,-249.42"/>
</g>
<!-- JJ_21 -->
<g id="node10" class="node">
<title>JJ_21</title>
<ellipse fill="none" stroke="black" cx="301.25" cy="-234" rx="33.6" ry="18"/>
<text text-anchor="middle" x="301.25" y="-230.3" font-family="Times,serif" font-size="14.00">JJ_21</text>
</g>
<!-- II_0&#45;&#45;JJ_21 -->
<g id="edge10" class="edge">
<title>II_0&#45;&#45;JJ_21</title>
<path fill="none" stroke="black" d="M301.25,-287.7C301.25,-276.85 301.25,-262.92 301.25,-252.1"/>
</g>
</g>
</svg>
